<svg xmlns="http://www.w3.org/2000/svg" xmlns:xlink="http://www.w3.org/1999/xlink" width="1940" height="632" viewBox="0 0 1940 632"><defs><clipPath id="a"><rect width="1940" height="632" fill="none"/></clipPath></defs><g clip-path="url(#a)"><g transform="translate(-242 -140)"><g transform="translate(242 140)" fill="none" stroke="rgba(1,115,169,0.29)" stroke-width="0.5"><rect width="132" height="132" stroke="none"/><rect x="0.25" y="0.25" width="131.5" height="131.5" fill="none"/></g></g><g transform="translate(-90 -140)"><g transform="translate(242 140)" fill="none" stroke="rgba(1,115,169,0.29)" stroke-width="0.5"><rect width="132" height="132" stroke="none"/><rect x="0.25" y="0.25" width="131.5" height="131.5" fill="none"/></g></g><g transform="translate(62 -140)"><g transform="translate(242 140)" fill="none" stroke="rgba(1,115,169,0.29)" stroke-width="0.5"><rect width="132" height="132" stroke="none"/><rect x="0.25" y="0.25" width="131.5" height="131.5" fill="none"/></g></g><g transform="translate(214 -140)"><g transform="translate(242 140)" fill="none" stroke="rgba(1,115,169,0.29)" stroke-width="0.5"><rect width="132" height="132" stroke="none"/><rect x="0.25" y="0.25" width="131.5" height="131.5" fill="none"/></g></g><g transform="translate(366 -140)"><g transform="translate(242 140)" fill="none" stroke="rgba(1,115,169,0.29)" stroke-width="0.5"><rect width="132" height="132" stroke="none"/><rect x="0.25" y="0.25" width="131.5" height="131.5" fill="none"/></g></g><g transform="translate(518 -140)"><g transform="translate(242 140)" fill="none" stroke="rgba(1,115,169,0.29)" stroke-width="0.5"><rect width="132" height="132" stroke="none"/><rect x="0.25" y="0.25" width="131.5" height="131.5" fill="none"/></g></g><g transform="translate(670 -140)"><g transform="translate(242 140)" fill="none" stroke="rgba(1,115,169,0.29)" stroke-width="0.5"><rect width="132" height="132" stroke="none"/><rect x="0.25" y="0.25" width="131.5" height="131.5" fill="none"/></g></g><g transform="translate(822 -140)"><g transform="translate(242 140)" fill="none" stroke="rgba(1,115,169,0.29)" stroke-width="0.5"><rect width="132" height="132" stroke="none"/><rect x="0.25" y="0.25" width="131.5" height="131.5" fill="none"/></g></g><g transform="translate(974 -140)"><g transform="translate(242 140)" fill="none" stroke="rgba(1,115,169,0.29)" stroke-width="0.5"><rect width="132" height="132" stroke="none"/><rect x="0.25" y="0.25" width="131.5" height="131.5" fill="none"/></g></g><g transform="translate(1126 -140)"><g transform="translate(242 140)" fill="none" stroke="rgba(1,115,169,0.29)" stroke-width="0.5"><rect width="132" height="132" stroke="none"/><rect x="0.25" y="0.25" width="131.5" height="131.5" fill="none"/></g></g><g transform="translate(1278 -140)"><g transform="translate(242 140)" fill="none" stroke="rgba(1,115,169,0.29)" stroke-width="0.5"><rect width="132" height="132" stroke="none"/><rect x="0.25" y="0.25" width="131.5" height="131.5" fill="none"/></g></g><g transform="translate(1430 -140)"><g transform="translate(242 140)" fill="none" stroke="rgba(1,115,169,0.29)" stroke-width="0.5"><rect width="132" height="132" stroke="none"/><rect x="0.25" y="0.25" width="131.5" height="131.5" fill="none"/></g></g><g transform="translate(1582 -140)"><g transform="translate(242 140)" fill="none" stroke="rgba(1,115,169,0.29)" stroke-width="0.5"><rect width="132" height="132" stroke="none"/><rect x="0.25" y="0.25" width="131.5" height="131.5" fill="none"/></g></g><g transform="translate(-242 12)"><g transform="translate(242 140)" fill="none" stroke="rgba(1,115,169,0.29)" stroke-width="0.5"><rect width="132" height="132" stroke="none"/><rect x="0.25" y="0.25" width="131.5" height="131.5" fill="none"/></g></g><g transform="translate(-90 12)"><g transform="translate(242 140)" fill="none" stroke="rgba(1,115,169,0.29)" stroke-width="0.5"><rect width="132" height="132" stroke="none"/><rect x="0.25" y="0.25" width="131.5" height="131.5" fill="none"/></g></g><g transform="translate(62 12)"><g transform="translate(242 140)" fill="none" stroke="rgba(1,115,169,0.29)" stroke-width="0.5"><rect width="132" height="132" stroke="none"/><rect x="0.25" y="0.25" width="131.5" height="131.5" fill="none"/></g></g><g transform="translate(214 12)"><g transform="translate(242 140)" fill="none" stroke="rgba(1,115,169,0.29)" stroke-width="0.5"><rect width="132" height="132" stroke="none"/><rect x="0.25" y="0.25" width="131.5" height="131.5" fill="none"/></g></g><g transform="translate(366 12)"><g transform="translate(242 140)" fill="none" stroke="rgba(1,115,169,0.29)" stroke-width="0.5"><rect width="132" height="132" stroke="none"/><rect x="0.25" y="0.25" width="131.5" height="131.5" fill="none"/></g></g><g transform="translate(518 12)"><g transform="translate(242 140)" fill="none" stroke="rgba(1,115,169,0.29)" stroke-width="0.5"><rect width="132" height="132" stroke="none"/><rect x="0.25" y="0.25" width="131.5" height="131.5" fill="none"/></g></g><g transform="translate(670 12)"><g transform="translate(242 140)" fill="none" stroke="rgba(1,115,169,0.29)" stroke-width="0.5"><rect width="132" height="132" stroke="none"/><rect x="0.25" y="0.25" width="131.5" height="131.5" fill="none"/></g></g><g transform="translate(822 12)"><g transform="translate(242 140)" fill="none" stroke="rgba(1,115,169,0.29)" stroke-width="0.5"><rect width="132" height="132" stroke="none"/><rect x="0.25" y="0.25" width="131.5" height="131.5" fill="none"/></g></g><g transform="translate(974 12)"><g transform="translate(242 140)" fill="none" stroke="rgba(1,115,169,0.29)" stroke-width="0.5"><rect width="132" height="132" stroke="none"/><rect x="0.25" y="0.25" width="131.5" height="131.5" fill="none"/></g></g><g transform="translate(1126 12)"><g transform="translate(242 140)" fill="none" stroke="rgba(1,115,169,0.29)" stroke-width="0.5"><rect width="132" height="132" stroke="none"/><rect x="0.25" y="0.25" width="131.5" height="131.5" fill="none"/></g></g><g transform="translate(1278 12)"><g transform="translate(242 140)" fill="none" stroke="rgba(1,115,169,0.29)" stroke-width="0.5"><rect width="132" height="132" stroke="none"/><rect x="0.25" y="0.25" width="131.5" height="131.5" fill="none"/></g></g><g transform="translate(1430 12)"><g transform="translate(242 140)" fill="none" stroke="rgba(1,115,169,0.29)" stroke-width="0.5"><rect width="132" height="132" stroke="none"/><rect x="0.25" y="0.25" width="131.5" height="131.5" fill="none"/></g></g><g transform="translate(1582 12)"><g transform="translate(242 140)" fill="none" stroke="rgba(1,115,169,0.29)" stroke-width="0.5"><rect width="132" height="132" stroke="none"/><rect x="0.25" y="0.25" width="131.5" height="131.5" fill="none"/></g></g><g transform="translate(-242 164)"><g transform="translate(242 140)" fill="none" stroke="rgba(1,115,169,0.29)" stroke-width="0.5"><rect width="132" height="132" stroke="none"/><rect x="0.25" y="0.25" width="131.5" height="131.5" fill="none"/></g></g><g transform="translate(-90 164)"><g transform="translate(242 140)" fill="none" stroke="rgba(1,115,169,0.29)" stroke-width="0.5"><rect width="132" height="132" stroke="none"/><rect x="0.25" y="0.25" width="131.5" height="131.5" fill="none"/></g></g><g transform="translate(62 164)"><g transform="translate(242 140)" fill="none" stroke="rgba(1,115,169,0.29)" stroke-width="0.5"><rect width="132" height="132" stroke="none"/><rect x="0.25" y="0.25" width="131.5" height="131.5" fill="none"/></g></g><g transform="translate(214 164)"><g transform="translate(242 140)" fill="none" stroke="rgba(1,115,169,0.29)" stroke-width="0.5"><rect width="132" height="132" stroke="none"/><rect x="0.25" y="0.25" width="131.5" height="131.5" fill="none"/></g></g><g transform="translate(366 164)"><g transform="translate(242 140)" fill="none" stroke="rgba(1,115,169,0.29)" stroke-width="0.5"><rect width="132" height="132" stroke="none"/><rect x="0.25" y="0.25" width="131.5" height="131.5" fill="none"/></g></g><g transform="translate(518 164)"><g transform="translate(242 140)" fill="none" stroke="rgba(1,115,169,0.29)" stroke-width="0.5"><rect width="132" height="132" stroke="none"/><rect x="0.25" y="0.25" width="131.5" height="131.5" fill="none"/></g></g><g transform="translate(670 164)"><g transform="translate(242 140)" fill="none" stroke="rgba(1,115,169,0.29)" stroke-width="0.5"><rect width="132" height="132" stroke="none"/><rect x="0.25" y="0.25" width="131.5" height="131.5" fill="none"/></g></g><g transform="translate(822 164)"><g transform="translate(242 140)" fill="none" stroke="rgba(1,115,169,0.29)" stroke-width="0.5"><rect width="132" height="132" stroke="none"/><rect x="0.25" y="0.25" width="131.5" height="131.5" fill="none"/></g></g><g transform="translate(974 164)"><g transform="translate(242 140)" fill="none" stroke="rgba(1,115,169,0.29)" stroke-width="0.5"><rect width="132" height="132" stroke="none"/><rect x="0.25" y="0.25" width="131.5" height="131.5" fill="none"/></g></g><g transform="translate(1126 164)"><g transform="translate(242 140)" fill="none" stroke="rgba(1,115,169,0.29)" stroke-width="0.5"><rect width="132" height="132" stroke="none"/><rect x="0.25" y="0.25" width="131.5" height="131.5" fill="none"/></g></g><g transform="translate(1278 164)"><g transform="translate(242 140)" fill="none" stroke="rgba(1,115,169,0.29)" stroke-width="0.5"><rect width="132" height="132" stroke="none"/><rect x="0.25" y="0.25" width="131.5" height="131.5" fill="none"/></g></g><g transform="translate(1430 164)"><g transform="translate(242 140)" fill="none" stroke="rgba(1,115,169,0.29)" stroke-width="0.5"><rect width="132" height="132" stroke="none"/><rect x="0.25" y="0.25" width="131.5" height="131.5" fill="none"/></g></g><g transform="translate(1582 164)"><g transform="translate(242 140)" fill="none" stroke="rgba(1,115,169,0.29)" stroke-width="0.5"><rect width="132" height="132" stroke="none"/><rect x="0.25" y="0.25" width="131.5" height="131.5" fill="none"/></g></g><g transform="translate(-242 316)"><g transform="translate(242 140)" fill="none" stroke="rgba(1,115,169,0.29)" stroke-width="0.5"><rect width="132" height="132" stroke="none"/><rect x="0.25" y="0.25" width="131.5" height="131.5" fill="none"/></g></g><g transform="translate(-90 316)"><g transform="translate(242 140)" fill="none" stroke="rgba(1,115,169,0.29)" stroke-width="0.5"><rect width="132" height="132" stroke="none"/><rect x="0.25" y="0.25" width="131.5" height="131.5" fill="none"/></g></g><g transform="translate(62 316)"><g transform="translate(242 140)" fill="none" stroke="rgba(1,115,169,0.29)" stroke-width="0.5"><rect width="132" height="132" stroke="none"/><rect x="0.25" y="0.25" width="131.5" height="131.5" fill="none"/></g></g><g transform="translate(214 316)"><g transform="translate(242 140)" fill="none" stroke="rgba(1,115,169,0.29)" stroke-width="0.5"><rect width="132" height="132" stroke="none"/><rect x="0.25" y="0.25" width="131.5" height="131.5" fill="none"/></g></g><g transform="translate(366 316)"><g transform="translate(242 140)" fill="none" stroke="rgba(1,115,169,0.29)" stroke-width="0.5"><rect width="132" height="132" stroke="none"/><rect x="0.25" y="0.25" width="131.5" height="131.5" fill="none"/></g></g><g transform="translate(518 316)"><g transform="translate(242 140)" fill="none" stroke="rgba(1,115,169,0.29)" stroke-width="0.5"><rect width="132" height="132" stroke="none"/><rect x="0.25" y="0.25" width="131.5" height="131.5" fill="none"/></g></g><g transform="translate(670 316)"><g transform="translate(242 140)" fill="none" stroke="rgba(1,115,169,0.29)" stroke-width="0.5"><rect width="132" height="132" stroke="none"/><rect x="0.25" y="0.25" width="131.5" height="131.5" fill="none"/></g></g><g transform="translate(822 316)"><g transform="translate(242 140)" fill="none" stroke="rgba(1,115,169,0.29)" stroke-width="0.5"><rect width="132" height="132" stroke="none"/><rect x="0.25" y="0.25" width="131.5" height="131.5" fill="none"/></g></g><g transform="translate(974 316)"><g transform="translate(242 140)" fill="none" stroke="rgba(1,115,169,0.29)" stroke-width="0.5"><rect width="132" height="132" stroke="none"/><rect x="0.25" y="0.25" width="131.5" height="131.5" fill="none"/></g></g><g transform="translate(1126 316)"><g transform="translate(242 140)" fill="none" stroke="rgba(1,115,169,0.29)" stroke-width="0.5"><rect width="132" height="132" stroke="none"/><rect x="0.25" y="0.25" width="131.5" height="131.5" fill="none"/></g></g><g transform="translate(1278 316)"><g transform="translate(242 140)" fill="none" stroke="rgba(1,115,169,0.29)" stroke-width="0.5"><rect width="132" height="132" stroke="none"/><rect x="0.25" y="0.25" width="131.5" height="131.5" fill="none"/></g></g><g transform="translate(1430 316)"><g transform="translate(242 140)" fill="none" stroke="rgba(1,115,169,0.29)" stroke-width="0.5"><rect width="132" height="132" stroke="none"/><rect x="0.25" y="0.25" width="131.5" height="131.5" fill="none"/></g></g><g transform="translate(1582 316)"><g transform="translate(242 140)" fill="none" stroke="rgba(1,115,169,0.29)" stroke-width="0.5"><rect width="132" height="132" stroke="none"/><rect x="0.25" y="0.25" width="131.5" height="131.5" fill="none"/></g></g><g transform="translate(-242 468)"><g transform="translate(242 140)" fill="none" stroke="rgba(1,115,169,0.29)" stroke-width="0.5"><rect width="132" height="132" stroke="none"/><rect x="0.25" y="0.25" width="131.5" height="131.5" fill="none"/></g></g><g transform="translate(-90 468)"><g transform="translate(242 140)" fill="none" stroke="rgba(1,115,169,0.29)" stroke-width="0.5"><rect width="132" height="132" stroke="none"/><rect x="0.25" y="0.25" width="131.5" height="131.5" fill="none"/></g></g><g transform="translate(62 468)"><g transform="translate(242 140)" fill="none" stroke="rgba(1,115,169,0.29)" stroke-width="0.5"><rect width="132" height="132" stroke="none"/><rect x="0.25" y="0.25" width="131.5" height="131.5" fill="none"/></g></g><g transform="translate(214 468)"><g transform="translate(242 140)" fill="none" stroke="rgba(1,115,169,0.29)" stroke-width="0.5"><rect width="132" height="132" stroke="none"/><rect x="0.25" y="0.25" width="131.5" height="131.5" fill="none"/></g></g><g transform="translate(366 468)"><g transform="translate(242 140)" fill="none" stroke="rgba(1,115,169,0.29)" stroke-width="0.5"><rect width="132" height="132" stroke="none"/><rect x="0.25" y="0.25" width="131.5" height="131.5" fill="none"/></g></g><g transform="translate(518 468)"><g transform="translate(242 140)" fill="none" stroke="rgba(1,115,169,0.29)" stroke-width="0.5"><rect width="132" height="132" stroke="none"/><rect x="0.25" y="0.25" width="131.5" height="131.5" fill="none"/></g></g><g transform="translate(670 468)"><g transform="translate(242 140)" fill="none" stroke="rgba(1,115,169,0.29)" stroke-width="0.5"><rect width="132" height="132" stroke="none"/><rect x="0.25" y="0.25" width="131.5" height="131.5" fill="none"/></g></g><g transform="translate(822 468)"><g transform="translate(242 140)" fill="none" stroke="rgba(1,115,169,0.29)" stroke-width="0.5"><rect width="132" height="132" stroke="none"/><rect x="0.25" y="0.25" width="131.5" height="131.5" fill="none"/></g></g><g transform="translate(974 468)"><g transform="translate(242 140)" fill="none" stroke="rgba(1,115,169,0.29)" stroke-width="0.5"><rect width="132" height="132" stroke="none"/><rect x="0.25" y="0.25" width="131.5" height="131.5" fill="none"/></g></g><g transform="translate(1126 468)"><g transform="translate(242 140)" fill="none" stroke="rgba(1,115,169,0.29)" stroke-width="0.5"><rect width="132" height="132" stroke="none"/><rect x="0.25" y="0.25" width="131.5" height="131.5" fill="none"/></g></g><g transform="translate(1278 468)"><g transform="translate(242 140)" fill="none" stroke="rgba(1,115,169,0.29)" stroke-width="0.5"><rect width="132" height="132" stroke="none"/><rect x="0.25" y="0.25" width="131.5" height="131.5" fill="none"/></g></g><g transform="translate(1430 468)"><g transform="translate(242 140)" fill="none" stroke="rgba(1,115,169,0.29)" stroke-width="0.5"><rect width="132" height="132" stroke="none"/><rect x="0.25" y="0.25" width="131.5" height="131.5" fill="none"/></g></g><g transform="translate(1582 468)"><g transform="translate(242 140)" fill="none" stroke="rgba(1,115,169,0.29)" stroke-width="0.5"><rect width="132" height="132" stroke="none"/><rect x="0.25" y="0.25" width="131.5" height="131.5" fill="none"/></g></g></g></svg>