<svg xmlns="http://www.w3.org/2000/svg" width="780.531" height="340.663" viewBox="0 0 780.531 340.663">
    <g transform="translate(-561.661 -145.533)">
        <path
            d="M602.583,285.618c0-36.573,196.8-83.6,196.8-83.6s24.382,50.506,73.146,33.09,137.584-64.438,221.18-24.382,95.786,45.281,149.775,41.8,104.494,95.786,97.528,135.843c-4.235,24.354-34.212,20.7-60.955,52.247-17.021,20.08-19.241,82.913-57.472,83.6-97.528,1.742-48.764,22.64-62.7,0s-52.247,0-83.6,0S999.662,543.37,954.381,506.8s-85.337,22.64-107.977,17.416-76.629,13.933-123.652-53.989-55.73-17.416-85.337-19.157-97.528-33.09-67.921-62.7,73.146-17.416,55.73-48.764S602.583,322.191,602.583,285.618Z"
            transform="translate(0 -49)" fill="#fff" />
        <path
            d="M602.583,285.618c0-36.573,196.8-83.6,196.8-83.6s24.382,50.506,73.146,33.09,137.584-64.438,221.18-24.382,95.786,45.281,149.775,41.8,104.494,95.786,97.528,135.843c-4.235,24.354-34.212,20.7-60.955,52.247-17.021,20.08-19.241,82.913-57.472,83.6-97.528,1.742-48.764,22.64-62.7,0s-52.247,0-83.6,0S999.662,543.37,954.381,506.8s-85.337,22.64-107.977,17.416-76.629,13.933-123.652-53.989-55.73-17.416-85.337-19.157-97.528-33.09-67.921-62.7,73.146-17.416,55.73-48.764S602.583,322.191,602.583,285.618Z"
            transform="translate(0 -49)" fill="rgba(255,255,255,0.5)" stroke="rgba(1,115,169,0)" stroke-width="1" />
    </g>
</svg>