<svg id="Layer_1" data-name="Layer 1" xmlns="http://www.w3.org/2000/svg" viewBox="0 0 100 120"><rect x="29.96" width="39.67" height="25.45" rx="2.63" fill="#0173a9"/><rect x="19.03" y="29.09" width="61.3" height="70.41" rx="8.99" fill="none" stroke="#0173a9" stroke-miterlimit="10"/><path d="M18.53,98.18H80.84a3.1,3.1,0,0,1,3.1,3.1V120a0,0,0,0,1,0,0H15.43a0,0,0,0,1,0,0V101.28A3.1,3.1,0,0,1,18.53,98.18Z" fill="#0173a9"/><rect x="6.35" y="56.11" width="36.36" height="25.96" rx="1.66" transform="translate(-56.11 93.63) rotate(-90)" fill="#0173a9"/><rect x="80.39" y="56.11" width="36.36" height="25.96" rx="1.65" transform="translate(17.93 167.67) rotate(-90)" fill="#0173a9"/><rect x="8.52" y="72.73" width="82.21" height="14.55" fill="#0173a9"/></svg>